<?xml version="1.0" encoding="UTF-8"?>
<!DOCTYPE svg PUBLIC "-//W3C//DTD SVG 1.1//EN"
    "http://www.w3.org/Graphics/SVG/1.1/DTD/svg11.dtd"><svg xmlns="http://www.w3.org/2000/svg" height="2000.0000" stroke-opacity="1" viewBox="0 0 4000 2000" font-size="1" width="4000.0000" xmlns:xlink="http://www.w3.org/1999/xlink" stroke="rgb(0,0,0)" version="1.1"><defs></defs><g stroke-linejoin="miter" stroke-opacity="1.0" fill-opacity="0.0" stroke="rgb(0,0,0)" stroke-width="11.313708498984761" fill="rgb(0,0,0)" stroke-linecap="butt" stroke-miterlimit="10.0"><path d="M 4000.0000,2000.0000 l -0.0000,-2000.0000 h -2000.0000 l -0.0000,2000.0000 Z"/></g><g stroke-linejoin="miter" stroke-opacity="1.0" fill-opacity="1.0" stroke="rgb(0,0,0)" stroke-width="0.0" fill="rgb(255,0,0)" stroke-linecap="butt" stroke-miterlimit="10.0"><path d="M 3040.0000,1000.0000 c 0.0000,-22.0914 -17.9086,-40.0000 -40.0000 -40.0000c -22.0914,-0.0000 -40.0000,17.9086 -40.0000 40.0000c -0.0000,22.0914 17.9086,40.0000 40.0000 40.0000c 22.0914,0.0000 40.0000,-17.9086 40.0000 -40.0000Z"/></g><g stroke-linejoin="miter" stroke-opacity="1.0" fill-opacity="0.0" stroke="rgb(0,0,0)" stroke-width="11.313708498984761" fill="rgb(0,0,0)" stroke-linecap="butt" stroke-miterlimit="10.0"><path d="M 2000.0000,1000.0000 c 0.0000,-552.2847 -447.7153,-1000.0000 -1000.0000 -1000.0000c -552.2847,-0.0000 -1000.0000,447.7153 -1000.0000 1000.0000c -0.0000,552.2847 447.7153,1000.0000 1000.0000 1000.0000c 552.2847,0.0000 1000.0000,-447.7153 1000.0000 -1000.0000Z"/></g><g stroke-linejoin="miter" stroke-opacity="1.0" fill-opacity="1.0" stroke="rgb(0,0,0)" stroke-width="0.0" fill="rgb(255,0,0)" stroke-linecap="butt" stroke-miterlimit="10.0"><path d="M 1080.0000,1000.0000 c 0.0000,-44.1828 -35.8172,-80.0000 -80.0000 -80.0000c -44.1828,-0.0000 -80.0000,35.8172 -80.0000 80.0000c -0.0000,44.1828 35.8172,80.0000 80.0000 80.0000c 44.1828,0.0000 80.0000,-35.8172 80.0000 -80.0000Z"/></g></svg>